<svg version="1.1" id="Layer_1" xmlns="http://www.w3.org/2000/svg" xmlns:xlink="http://www.w3.org/1999/xlink" x="0px" y="0px"
	 width="100%" viewBox="0 0 1024 1024" enable-background="new 0 0 1024 1024" xml:space="preserve">

<path opacity="1.000000" stroke="none" 
	d="
M225.393707,445.288940 
	C264.861816,432.493469 303.174377,434.824768 340.710632,451.241699 
	C344.204651,452.769836 347.443878,454.884613 350.786682,456.753265 
	C353.845093,458.462921 355.370605,457.707062 355.698608,454.099152 
	C359.516510,412.101288 378.499512,378.692108 413.047394,354.500092 
	C433.531128,340.156403 456.430481,332.124573 481.530090,330.676971 
	C503.838074,329.390381 526.169189,328.919312 548.439636,330.740204 
	C577.391541,333.107300 602.817932,344.266174 624.935913,363.073212 
	C650.098267,384.468933 664.592407,411.879669 670.717773,444.021027 
	C671.120667,446.135315 671.181580,448.320068 671.328003,450.477051 
	C671.781616,457.157349 673.642700,458.391998 679.386658,455.185516 
	C690.691956,448.874603 702.705994,444.276550 715.276306,441.643463 
	C770.174683,430.144043 819.439392,440.839508 859.771118,481.391876 
	C885.047180,506.806213 897.365784,538.485291 897.948059,574.294495 
	C898.316345,596.939636 899.109497,619.639282 897.351013,642.257141 
	C894.534058,678.489380 879.147400,708.679321 852.248901,732.985718 
	C829.385620,753.645752 802.359253,765.246582 771.891296,768.858276 
	C765.631897,769.600342 759.242065,769.365051 752.912231,769.367615 
	C727.079224,769.378052 701.245178,769.415405 675.414124,769.169495 
	C670.413208,769.121887 668.410156,770.674316 666.849304,775.662292 
	C655.184387,812.939575 631.909424,840.669678 597.121643,858.619385 
	C577.304626,868.844727 556.089233,873.068481 533.957458,873.212036 
	C518.791626,873.310364 503.606995,873.709229 488.461334,873.148438 
	C427.574066,870.894165 378.907745,833.529297 361.595978,779.929932 
	C358.779297,771.209106 355.756775,762.585632 355.557220,753.244507 
	C355.469360,749.131592 353.732147,748.385315 350.007324,750.507019 
	C325.049744,764.723022 298.123169,771.519714 269.542328,770.078552 
	C211.506149,767.152222 167.350021,741.641541 141.264664,688.427734 
	C133.713593,673.023621 130.485748,656.373230 129.636093,639.189209 
	C128.400177,614.194092 128.512726,589.187622 129.936783,564.252075 
	C131.272247,540.867798 139.167542,519.330200 152.540070,500.002319 
	C170.649918,473.827454 194.471878,455.133606 225.393707,445.288940 
M841.754761,638.181213 
	C842.963257,617.372253 842.991882,596.532959 842.553467,575.717224 
	C841.994507,549.180237 830.711914,527.763123 810.309875,510.821625 
	C780.099121,485.735077 729.252991,486.873596 701.242981,505.795074 
	C666.464050,529.289062 632.010071,553.268677 597.591431,577.290222 
	C561.666626,602.362976 525.959778,627.748108 490.140106,652.971802 
	C464.943970,670.714661 439.744293,688.452820 414.473175,706.088379 
	C411.400604,708.232544 410.068054,710.717224 410.226990,714.437256 
	C410.660461,724.582886 410.204376,734.731445 411.012360,744.897888 
	C413.909943,781.355225 444.037628,813.535278 480.335022,817.553772 
	C501.712219,819.920532 523.295044,819.693787 544.674133,817.719788 
	C582.783936,814.200806 612.817505,782.681519 615.680420,744.277527 
	C617.652588,717.822876 616.226318,691.324829 616.432129,664.848022 
	C616.557617,648.691528 615.998474,632.530884 615.986633,616.371887 
	C615.977356,603.737244 621.727051,594.737000 633.747131,590.158386 
	C652.053894,583.185181 670.070190,594.608032 671.422852,614.053528 
	C671.746094,618.700867 672.067871,623.365479 672.022461,628.018555 
	C671.759094,655.007446 672.573669,682.002869 671.512390,708.987244 
	C671.317078,713.952332 673.019775,715.558472 678.045532,715.459778 
	C681.874207,715.384583 685.700989,715.123840 689.528992,715.116516 
	C711.859253,715.073792 734.189697,715.091919 756.520081,715.067993 
	C768.969177,715.054688 781.174072,713.388489 792.544800,708.122742 
	C821.988098,694.487427 837.834290,671.023193 841.754761,638.181213 
M392.212067,551.345520 
	C374.439606,538.984741 356.617432,526.694641 338.909424,514.242188 
	C323.033783,503.078217 306.276550,494.247253 286.453491,492.669708 
	C269.675507,491.334503 253.025757,491.674377 237.398605,498.632507 
	C202.493301,514.174377 184.718948,541.435547 184.498840,579.524170 
	C184.390259,598.311340 183.887939,617.117249 185.077454,635.927368 
	C186.720520,661.909241 197.997086,682.971985 218.632202,697.915466 
	C249.772552,720.466553 283.518402,721.249817 317.932556,705.443176 
	C329.936981,699.929504 340.038666,691.221069 351.193176,684.260986 
	C354.518707,682.186035 355.670837,679.494507 355.638916,675.537476 
	C355.477844,655.549622 355.398010,635.556213 355.703064,615.571106 
	C355.947601,599.551025 368.659576,587.683716 384.543365,588.005615 
	C399.708496,588.313049 411.202515,600.297241 411.274963,615.965210 
	C411.304230,622.294861 411.137054,628.625305 411.136536,634.955383 
	C411.136383,636.569397 410.855255,638.490601 412.710754,639.368469 
	C414.335022,640.136963 415.534058,638.866699 416.742065,638.020630 
	C431.745819,627.512329 446.763153,617.023193 461.730652,606.463501 
	C465.911743,603.513672 465.845825,602.190674 461.460907,599.159485 
	C438.584167,583.344849 415.681580,567.567688 392.212067,551.345520 
M606.374634,427.133514 
	C591.740845,402.211456 570.595337,387.369995 541.331421,385.018677 
	C522.701721,383.521820 504.079102,383.919708 485.458618,385.094360 
	C450.641205,387.290741 421.512421,411.407867 413.184265,445.355316 
	C409.751312,459.348877 410.673431,473.768463 410.136993,488.043518 
	C409.910492,494.071686 412.022675,497.816803 416.953918,501.250641 
	C448.105164,522.942749 479.605103,544.141663 510.200806,566.622864 
	C512.882019,568.592957 514.946594,568.322388 517.374207,566.559021 
	C522.223328,563.036743 527.112732,559.568970 532.019104,556.126526 
	C558.187073,537.766541 584.323730,519.361145 610.582336,501.131592 
	C614.816956,498.191803 617.008057,494.894958 616.702026,489.567291 
	C616.320618,482.927216 616.435486,476.242981 616.646484,469.587677 
	C617.117493,454.731689 613.311890,440.941101 606.374634,427.133514 
z"/>
<path opacity="1.000000" stroke="none" 
	d="
M435.171997,159.193909 
	C457.752625,131.069565 487.502838,119.301270 522.269165,122.067513 
	C561.351379,125.177147 589.773254,145.468643 605.453735,181.665741 
	C630.301331,239.024261 593.847412,299.801208 538.394165,313.493591 
	C483.225494,327.115631 433.652069,295.518677 418.530060,248.402206 
	C408.186401,216.173935 414.148163,186.282455 435.171997,159.193909 
M551.620544,239.079895 
	C554.271423,233.673447 556.493896,228.120544 556.740723,222.011902 
	C557.920410,192.815918 532.913391,171.589539 504.244293,177.418610 
	C483.703644,181.594955 467.052765,203.388092 469.715973,222.610138 
	C472.429718,242.196457 486.486694,257.536469 506.429291,261.073395 
	C520.875305,263.635529 541.199158,258.349396 551.620544,239.079895 
z"/>
<path opacity="1.000000" stroke="none" 
	d="
M309.992157,368.916382 
	C288.248566,402.669373 257.174133,418.808838 217.849350,416.907166 
	C174.538544,414.812775 137.115829,382.914368 127.228844,340.178772 
	C117.071075,296.272736 144.076263,241.542099 196.175858,226.332016 
	C237.541443,214.255630 281.613129,230.611359 305.279480,262.562683 
	C328.238892,293.559631 331.005646,336.076813 309.992157,368.916382 
M213.469528,361.122681 
	C223.242767,364.272339 232.600327,362.302338 241.628738,358.422241 
	C262.856018,349.299469 273.429016,325.460236 265.408173,305.264069 
	C258.380890,287.569763 242.968185,277.193481 223.314102,277.386017 
	C205.777008,277.557800 193.103622,286.458313 185.401810,301.535431 
	C178.412781,315.217163 179.565186,329.237091 188.098511,342.308289 
	C194.060318,351.440460 202.430618,357.432068 213.469528,361.122681 
z"/>
<path opacity="1.000000" stroke="none" 
	d="
M713.043579,361.824036 
	C685.378845,306.651917 717.694519,238.778275 780.831787,224.528473 
	C825.529968,214.440262 873.755066,237.711365 893.311279,279.730225 
	C921.084961,339.405304 879.709106,405.634308 819.370300,415.593414 
	C774.791870,422.951263 731.279053,399.206207 713.043579,361.824036 
M830.615906,352.132965 
	C841.535767,342.837769 846.802124,330.802368 845.554077,316.731323 
	C842.735413,284.954407 809.754272,267.490753 781.495850,282.381195 
	C762.914062,292.172668 753.367432,315.580811 761.045959,333.328247 
	C772.000916,358.648743 801.578369,373.305786 830.615906,352.132965 
z"/>
</svg>